<svg xmlns="http://www.w3.org/2000/svg" xmlns:xlink="http://www.w3.org/1999/xlink" width="156" height="156"><ellipse cx="78.011" cy="78" rx="60.45" ry="60.439" fill="none" stroke="#2a2a2a" stroke-width="5.121"/><g id="c"><g id="a" stroke="#000" stroke-linecap="round"><path d="M75.977.744l7.55 15.667-7.55-.66" fill="#5e5e5e" transform="translate(2.023 -.236)"/><path d="M75.977.744L68.52 16.41l7.457-.66" fill="#909090" transform="translate(2.023 -.236)"/></g><use height="100%" width="100%" transform="rotate(-180 78 78)" id="b" xlink:href="#a" y="0" x="0"/><use height="100%" width="100%" transform="rotate(-90 78 78)" xlink:href="#a"/><use height="100%" width="100%" transform="rotate(-90 78 78)" xlink:href="#b"/></g><use x="0" y="0" xlink:href="#c" id="d" transform="rotate(-15 78 78)" width="100%" height="100%"/><use x="0" y="0" xlink:href="#d" id="e" transform="rotate(-15 78 78)" width="100%" height="100%"/><use x="0" y="0" xlink:href="#e" id="f" transform="rotate(-15 78 78)" width="100%" height="100%"/><use x="0" y="0" xlink:href="#f" id="g" transform="rotate(-15 78 78)" width="100%" height="100%"/><use xlink:href="#g" transform="rotate(-15 78 78)" width="100%" height="100%"/></svg>